<svg xmlns="http://www.w3.org/2000/svg" xmlns:xlink="http://www.w3.org/1999/xlink" version="1.1" id="Layer_1" x="0px" y="0px" width="100px" height="100px" viewBox="0 0 100 100" enable-background="new 0 0 100 100" xml:space="preserve">
<g>
	<g>
		<g>
			<path fill="#000000" d="M100,49.999C100,22.43,77.566,0,50,0C22.428,0,0,22.43,0,49.999C0,77.568,22.428,100,50,100     C77.566,100,100,77.568,100,49.999z M5.769,49.999C5.769,25.61,25.611,5.77,50,5.77S94.231,25.61,94.231,49.999     c0,24.39-19.843,44.231-44.231,44.231S5.769,74.389,5.769,49.999z"/>
		</g>
	</g>
	<g>
		<g>
			<path fill="#000000" d="M75.493,44.782c1.127-1.127,1.127-2.952,0-4.079c-1.127-1.126-2.952-1.126-4.079,0L50,62.121     L28.58,40.703c-1.126-1.126-2.952-1.126-4.079,0c-0.563,0.563-0.845,1.302-0.845,2.04c0,0.738,0.282,1.476,0.845,2.04     L47.96,68.238c1.127,1.127,2.953,1.127,4.079,0L75.493,44.782z"/>
		</g>
	</g>
</g>
</svg>