<svg xmlns="http://www.w3.org/2000/svg" xmlns:xlink="http://www.w3.org/1999/xlink" version="1.1" id="Layer_1" x="0px" y="0px" width="96px" height="100px" viewBox="0 0 96 100" enable-background="new 0 0 96 100" xml:space="preserve">
<g>
	<path d="M81.902,11.084H18.089c-3.478,0-6.288,2.936-6.288,6.561V93.12c0,3.625,2.811,6.562,6.288,6.562h63.813   c3.477,0,6.29-2.938,6.29-6.562V17.645C88.192,14.021,85.379,11.084,81.902,11.084z M82.657,90.093c0,0,0.173,1.517-0.537,2.303   c-0.721,0.8-2.055,0.691-2.055,0.691l-60.709,0.032c0,0-0.856-0.013-1.509-0.762c-0.564-0.646-0.557-2.015-0.557-2.015   l0.022-70.429c0,0,0-1.043,0.611-1.6c0.659-0.602,1.612-0.653,1.612-0.653h60.721c0,0,1.151-0.032,1.689,0.519   c0.732,0.749,0.71,1.536,0.71,1.536V90.093z"/>
	<g>
		<path d="M55.722,2.298c0,1.392-1.254,2.519-2.799,2.519h-5.596c-1.546,0-2.799-1.127-2.799-2.519l0,0    c0-1.39,1.253-2.518,2.799-2.518h5.596C54.468-0.22,55.722,0.908,55.722,2.298L55.722,2.298z"/>
		<path d="M62.113,7.748c0-1.458-0.134-3.888-1.324-3.888H39.243c-1.113,0-1.38,2.44-1.362,3.883L62.113,7.748z"/>
		<path d="M67.307,12.798c0-2.084-0.191-5.556-1.891-5.556h-30.78c-1.592,0-1.972,3.488-1.947,5.549L67.307,12.798z"/>
	</g>
	<rect x="37.191" y="32.048" width="35.439" height="3.151"/>
	<path d="M26.044,43.288v7.874h7.876v-7.874H26.044z M27.224,49.97v-5.51h5.514v5.51H27.224z"/>
	<rect x="37.191" y="47.012" width="35.439" height="3.15"/>
	<rect x="37.191" y="61.359" width="35.439" height="3.15"/>
	<rect x="37.191" y="75.365" width="35.439" height="3.149"/>
	<path d="M26.044,28.324v7.875h7.876v-7.875H26.044z M27.224,35.006v-5.509h5.514v5.509H27.224z"/>
	<path d="M26.044,57.636v7.874h7.876v-7.874H26.044z M27.224,64.318v-5.511h5.514v5.511H27.224z"/>
	<path d="M26.044,71.641v7.874h7.876v-7.874H26.044z M27.224,78.322v-5.51h5.514v5.51H27.224z"/>
</g>
</svg>